<svg width="21" height="21" viewBox="0 0 21 21" fill="none" xmlns="http://www.w3.org/2000/svg">
<rect width="21" height="21" rx="3" fill="white"/>
<path d="M4.59766 8.73633C4.18359 8.73633 3.85547 8.96289 3.61328 9.41602C3.375 9.86914 3.25586 10.4941 3.25586 11.291C3.25586 12.0996 3.375 12.7324 3.61328 13.1895C3.85156 13.6426 4.17969 13.8691 4.59766 13.8691C5.01562 13.8691 5.34375 13.6426 5.58203 13.1895C5.82422 12.7324 5.94531 12.0996 5.94531 11.291C5.94531 10.4941 5.82422 9.86914 5.58203 9.41602C5.34375 8.96289 5.01562 8.73633 4.59766 8.73633ZM4.58594 7.41797C5.48438 7.41797 6.19727 7.76758 6.72461 8.4668C7.25195 9.16211 7.51562 10.1074 7.51562 11.3027C7.51562 12.502 7.25195 13.4512 6.72461 14.1504C6.19727 14.8457 5.48438 15.1934 4.58594 15.1934C3.69531 15.1934 2.98828 14.8457 2.46484 14.1504C1.94531 13.4512 1.68555 12.502 1.68555 11.3027C1.68555 10.1035 1.94531 9.15625 2.46484 8.46094C2.98828 7.76562 3.69531 7.41797 4.58594 7.41797ZM10.8447 8.73633C10.4306 8.73633 10.1025 8.96289 9.86031 9.41602C9.62203 9.86914 9.50289 10.4941 9.50289 11.291C9.50289 12.0996 9.62203 12.7324 9.86031 13.1895C10.0986 13.6426 10.4267 13.8691 10.8447 13.8691C11.2627 13.8691 11.5908 13.6426 11.8291 13.1895C12.0712 12.7324 12.1923 12.0996 12.1923 11.291C12.1923 10.4941 12.0712 9.86914 11.8291 9.41602C11.5908 8.96289 11.2627 8.73633 10.8447 8.73633ZM10.833 7.41797C11.7314 7.41797 12.4443 7.76758 12.9716 8.4668C13.499 9.16211 13.7627 10.1074 13.7627 11.3027C13.7627 12.502 13.499 13.4512 12.9716 14.1504C12.4443 14.8457 11.7314 15.1934 10.833 15.1934C9.94234 15.1934 9.23531 14.8457 8.71187 14.1504C8.19234 13.4512 7.93258 12.502 7.93258 11.3027C7.93258 10.1035 8.19234 9.15625 8.71187 8.46094C9.23531 7.76562 9.94234 7.41797 10.833 7.41797ZM18.164 10.9805C18.6132 11.1211 18.9472 11.3438 19.1659 11.6484C19.3847 11.9492 19.4941 12.3418 19.4941 12.8262C19.4941 13.5566 19.246 14.1367 18.7499 14.5664C18.2577 14.9922 17.5859 15.2051 16.7343 15.2051C16.0468 15.2051 15.4784 15.0918 15.0292 14.8652C14.58 14.6387 14.3554 14.3633 14.3554 14.0391C14.3554 13.8477 14.4159 13.6934 14.537 13.5762C14.662 13.4551 14.8261 13.3945 15.0292 13.3945C15.1269 13.3945 15.3749 13.4824 15.7734 13.6582C16.1718 13.834 16.5234 13.9219 16.828 13.9219C17.1952 13.9219 17.4765 13.8242 17.6718 13.6289C17.871 13.4297 17.9706 13.1465 17.9706 12.7793C17.9706 12.3848 17.8866 12.1035 17.7187 11.9355C17.5546 11.7676 17.2382 11.6738 16.7695 11.6543C16.5234 11.6465 16.3573 11.5996 16.2714 11.5137C16.1894 11.4238 16.1484 11.2656 16.1484 11.0391C16.1484 10.7266 16.3163 10.5469 16.6523 10.5C16.6991 10.4961 16.7343 10.4922 16.7577 10.4883C17.1796 10.4297 17.453 10.3301 17.578 10.1895C17.703 10.0449 17.7655 9.8125 17.7655 9.49219C17.7655 9.21484 17.6894 9 17.537 8.84766C17.3886 8.69141 17.1777 8.61328 16.9042 8.61328C16.6152 8.61328 16.2909 8.70508 15.9316 8.88867C15.5722 9.06836 15.3241 9.1582 15.1874 9.1582C15.0351 9.1582 14.912 9.10938 14.8183 9.01172C14.7284 8.91016 14.6835 8.7832 14.6835 8.63086C14.6835 8.29883 14.914 8.01367 15.3749 7.77539C15.8359 7.53711 16.4042 7.41797 17.08 7.41797C17.7597 7.41797 18.3007 7.59375 18.703 7.94531C19.1093 8.29688 19.3124 8.76367 19.3124 9.3457C19.3124 9.72852 19.2187 10.0527 19.0312 10.3184C18.8476 10.5801 18.5585 10.8008 18.164 10.9805Z" fill="#000011"/>
</svg>
