<svg width="19" height="9" viewBox="0 0 19 9" fill="none" xmlns="http://www.w3.org/2000/svg">
<path d="M3.59766 1.73633C3.18359 1.73633 2.85547 1.96289 2.61328 2.41602C2.375 2.86914 2.25586 3.49414 2.25586 4.29102C2.25586 5.09961 2.375 5.73242 2.61328 6.18945C2.85156 6.64258 3.17969 6.86914 3.59766 6.86914C4.01562 6.86914 4.34375 6.64258 4.58203 6.18945C4.82422 5.73242 4.94531 5.09961 4.94531 4.29102C4.94531 3.49414 4.82422 2.86914 4.58203 2.41602C4.34375 1.96289 4.01562 1.73633 3.59766 1.73633ZM3.58594 0.417969C4.48438 0.417969 5.19727 0.767578 5.72461 1.4668C6.25195 2.16211 6.51562 3.10742 6.51562 4.30273C6.51562 5.50195 6.25195 6.45117 5.72461 7.15039C5.19727 7.8457 4.48438 8.19336 3.58594 8.19336C2.69531 8.19336 1.98828 7.8457 1.46484 7.15039C0.945312 6.45117 0.685547 5.50195 0.685547 4.30273C0.685547 3.10352 0.945312 2.15625 1.46484 1.46094C1.98828 0.765625 2.69531 0.417969 3.58594 0.417969Z" fill="#000011"/>
<path d="M9.84469 1.73633C9.43062 1.73633 9.1025 1.96289 8.86031 2.41602C8.62203 2.86914 8.50289 3.49414 8.50289 4.29102C8.50289 5.09961 8.62203 5.73242 8.86031 6.18945C9.09859 6.64258 9.42672 6.86914 9.84469 6.86914C10.2627 6.86914 10.5908 6.64258 10.8291 6.18945C11.0712 5.73242 11.1923 5.09961 11.1923 4.29102C11.1923 3.49414 11.0712 2.86914 10.8291 2.41602C10.5908 1.96289 10.2627 1.73633 9.84469 1.73633ZM9.83297 0.417969C10.7314 0.417969 11.4443 0.767578 11.9716 1.4668C12.499 2.16211 12.7627 3.10742 12.7627 4.30273C12.7627 5.50195 12.499 6.45117 11.9716 7.15039C11.4443 7.8457 10.7314 8.19336 9.83297 8.19336C8.94234 8.19336 8.23531 7.8457 7.71187 7.15039C7.19234 6.45117 6.93258 5.50195 6.93258 4.30273C6.93258 3.10352 7.19234 2.15625 7.71187 1.46094C8.23531 0.765625 8.94234 0.417969 9.83297 0.417969Z" fill="#000011"/>
<path d="M17.164 3.98047C17.6132 4.12109 17.9472 4.34375 18.1659 4.64844C18.3847 4.94922 18.4941 5.3418 18.4941 5.82617C18.4941 6.55664 18.246 7.13672 17.7499 7.56641C17.2577 7.99219 16.5859 8.20508 15.7343 8.20508C15.0468 8.20508 14.4784 8.0918 14.0292 7.86523C13.58 7.63867 13.3554 7.36328 13.3554 7.03906C13.3554 6.84766 13.4159 6.69336 13.537 6.57617C13.662 6.45508 13.8261 6.39453 14.0292 6.39453C14.1269 6.39453 14.3749 6.48242 14.7734 6.6582C15.1718 6.83398 15.5234 6.92188 15.828 6.92188C16.1952 6.92188 16.4765 6.82422 16.6718 6.62891C16.871 6.42969 16.9706 6.14648 16.9706 5.7793C16.9706 5.38477 16.8866 5.10352 16.7187 4.93555C16.5546 4.76758 16.2382 4.67383 15.7695 4.6543C15.5234 4.64648 15.3573 4.59961 15.2714 4.51367C15.1894 4.42383 15.1484 4.26562 15.1484 4.03906C15.1484 3.72656 15.3163 3.54688 15.6523 3.5C15.6991 3.49609 15.7343 3.49219 15.7577 3.48828C16.1796 3.42969 16.453 3.33008 16.578 3.18945C16.703 3.04492 16.7655 2.8125 16.7655 2.49219C16.7655 2.21484 16.6894 2 16.537 1.84766C16.3886 1.69141 16.1777 1.61328 15.9042 1.61328C15.6152 1.61328 15.2909 1.70508 14.9316 1.88867C14.5722 2.06836 14.3241 2.1582 14.1874 2.1582C14.0351 2.1582 13.912 2.10938 13.8183 2.01172C13.7284 1.91016 13.6835 1.7832 13.6835 1.63086C13.6835 1.29883 13.914 1.01367 14.3749 0.775391C14.8359 0.537109 15.4042 0.417969 16.08 0.417969C16.7597 0.417969 17.3007 0.59375 17.703 0.945312C18.1093 1.29688 18.3124 1.76367 18.3124 2.3457C18.3124 2.72852 18.2187 3.05273 18.0312 3.31836C17.8476 3.58008 17.5585 3.80078 17.164 3.98047Z" fill="#000011"/>
</svg>
