<svg viewBox="0 0 110.2855 128.3916083916084" xmlns="http://www.w3.org/2000/svg" style="max-height: 500px" width="110.2855" height="128.3916083916084">
    <path d="M108.26,46.68c-.22-1.62-.52-3.2-.88-4.76.49,2.85.76,5.77.76,8.75,0,28.42-23.04,51.46-51.46,51.46-11.07,0-21.31-3.51-29.7-9.45-1.39,1.84-2.73,3.72-4.03,5.63,10.84,7.68,24.5,11.45,38.71,9.53,29.76-4.02,50.62-31.4,46.6-61.16Z" class="icon-bg" fill="#000"/>
    <path d="M18.25,94.57c1.3-1.91,2.65-3.79,4.04-5.63-10.47-9.42-17.06-23.07-17.06-38.27C5.22,25.29,23.62,4.21,47.81,0c-.24.03-.47.05-.71.08C17.34,4.1-3.52,31.48.5,61.24c1.81,13.41,8.37,25,17.75,33.33Z" class="icon-bg" fill="#000"/>
    <path d="M92.65,60.22c-.01-.36-.29-.65-.65-.68-6.75-.55-33.17,4.52-43.36,6.47,1.03-.57,2.2-1.22,3.46-1.92,10.79-5.78,29.06-15.33,33.91-16.66.37-.1.59-.48.5-.85l-.08-.32c-.04-.19-.17-.35-.33-.45-.17-.1-.37-.12-.55-.07-5.57,1.55-23.25,11.07-34.59,17.36-1.52.82-2.81,1.51-3.81,2.06.31-.37.64-.76,1-1.19,5.61-6.62,17.29-20.4,20.89-25.08.12-.15.17-.35.14-.54-.03-.19-.14-.37-.3-.48l-.27-.19c-.31-.22-.74-.15-.97.15-3.54,4.55-14.73,17.85-20.55,24.67,3.95-9.88,11.8-30.77,13.76-38.48.09-.36-.1-.72-.45-.85l-.33-.12c-.19-.07-.4-.05-.57.04-.18.09-.31.26-.36.45-2,7.83-9.89,28.93-13.7,38.3,1.21-9.21,2.58-21.78,2-27.65-.04-.38-.35-.66-.74-.64h-.33c-.2.02-.38.11-.51.25-.13.15-.19.34-.17.53.56,6.17-1.08,20.48-2.08,28.03-1.96-10.85-6.39-35.26-9.26-41.21-.17-.35-.58-.5-.93-.34l-.32.14c-.18.08-.31.23-.38.41s-.06.38.03.56c2.53,5.2,6.4,25.83,8.52,37.39-1.64-3.51-3.67-7.56-5.39-10.93-3.75-7.34-7.89-15.06-9.27-17.39-.2-.33-.62-.45-.96-.26l-.26.14c-.17.09-.29.25-.34.43-.05.18-.03.38.06.55,1.25,2.21,5.23,9.66,9.15,17.35,2.49,4.89,5.6,11.13,7.27,15.02-5.64-5.41-17.06-16.82-23.34-29.21-.17-.34-.58-.48-.93-.33l-.32.14c-.18.08-.32.23-.38.41-.07.18-.05.39.04.56,4.82,9.54,13.47,20.18,25.7,31.63l.38.36c-.08.08-.16.17-.23.26-.15.16-.39.41-.71.74-9.21,9.48-18.1,20.82-26.43,33.73-.02.03-1.65,2.79-2.74,4.04-.19.22-.37.38-.55.53-1.89-.17-4.85,2.33-7.4,6.5-3.06,5.01-4.43,10.61-3.22,12.91.06.22.14.41.26.57.15.2.36.29.6.3,1.82.83,5.14-1.74,7.97-6.36,2.47-4.03,3.82-8.44,3.63-11.21.53-1.99,1.11-3.56,2.92-6.2.22-.32.54-.81.95-1.45,3.39-5.19,12.38-18.99,25.02-31.69.04-.03.88-.72,1.6-1.46.51.24,1.28.63,2.28,1.14,6.82,3.49,22.8,11.66,37.39,13.19.02,0,.05,0,.07,0,.18,0,.35-.07.49-.19.15-.14.23-.34.22-.55v-.39c-.03-.35-.3-.65-.65-.68-13.41-1.39-28.2-8.78-35.31-12.33-.2-.1-.39-.2-.58-.29,6.04.44,18.41,2.14,35.64,4.9l.13.02s.08,0,.11,0c.34,0,.65-.25.7-.6l.05-.33c.06-.39-.2-.75-.58-.82-3.67-.63-23.06-3.64-33.58-4.69,22.87-4.41,36.69-6.45,41.1-6.06.21.02.41-.05.55-.19.15-.14.23-.34.22-.54l-.02-.39Z" fill="#000" class="icon-fg"/>
</svg>